<svg xmlns="http://www.w3.org/2000/svg" version="1.1" xmlns:xlink="http://www.w3.org/1999/xlink" width="512" height="512"><svg xmlns="http://www.w3.org/2000/svg" version="1.1" xmlns:xlink="http://www.w3.org/1999/xlink" width="512" height="512"><svg width="512" height="512" viewBox="0 0 512 512" fill="none" xmlns="http://www.w3.org/2000/svg">
<rect width="512" height="512" rx="100" fill="white"></rect>
<path d="M145.631 218.656L159.283 221.251C163.633 222.439 182.338 226.44 183.945 230.29C185.551 234.139 180.649 241.755 179.143 245.555C173.504 259.8 174.743 273.827 182.773 286.866C185.367 291.067 188.796 292.105 185.116 296.909C177.67 306.584 159.601 309.346 148.241 308.174C107.033 303.956 72.333 264.386 57.1581 228.264C50.0977 211.442 45.9819 195.624 56.7733 179.337C73.705 153.744 112.654 137.943 141.599 131.314C166.093 125.707 199.906 124.568 217.657 145.559C232.514 163.134 221.94 191.171 233.033 210.069C236.546 216.045 241.9 219.694 246.535 224.665C247.656 229.352 243.808 227.193 241.315 227.076C239.257 226.975 236.53 226.908 234.505 227.076C232.246 227.26 229.436 228.482 227.328 228.247C224.868 227.98 217.724 224.247 214.746 223.159C207.184 220.38 199.822 218.472 191.841 217.166C176.215 214.589 160.906 213.802 145.631 218.656Z" fill="white"></path>
<path d="M362.312 219.058C362.413 218.472 361.609 218.522 361.191 218.372C341.097 211.86 313.073 215.928 293.481 223.058C290.436 224.163 283.092 227.996 280.599 228.264C278.474 228.482 275.663 227.277 273.421 227.092C271.397 226.925 268.67 226.992 266.612 227.092C264.135 227.21 260.271 229.369 261.392 224.682C266.026 219.727 271.38 216.062 274.893 210.086C285.986 191.188 275.412 163.151 290.269 145.575C308.021 124.585 341.817 125.707 366.328 131.331C395.272 137.959 434.221 153.76 451.153 179.354C461.944 195.657 457.845 211.459 450.768 228.281C435.593 264.403 400.893 303.973 359.685 308.191C348.308 309.363 330.256 306.584 322.811 296.926C319.113 292.139 322.56 291.084 325.153 286.883C333.184 273.843 334.422 259.816 328.784 245.572C327.278 241.772 322.376 234.173 323.982 230.306C324.952 227.963 333.669 225.268 336.212 224.481C344.661 221.887 353.495 220.079 362.295 219.058H362.312Z" fill="white"></path>
<path d="M253.829 43.3361C259.183 43.1519 269.975 47.2529 274.843 49.8139C292.578 59.1708 317.724 87.1243 322.693 106.725C323.597 110.274 323.764 111.764 320.452 113.94C315.767 117.003 306.347 119.062 300.642 121.823C266.227 138.428 272.936 169.763 265.876 200.662C264.571 206.404 262.329 216.43 254.984 217.066C246.1 217.836 243.657 207.676 242.118 200.997C234.974 170.031 241.817 138.495 207.284 121.823C201.579 119.078 192.143 117.003 187.475 113.94C184.162 111.764 184.329 110.274 185.233 106.725C191.423 82.3203 227.428 44.2734 253.829 43.3361Z" fill="white"></path>
<path d="M207.719 306.668C210.413 306.065 213.776 308.325 216.352 309.112C221.606 310.702 227.06 311.94 232.531 312.61C238.002 313.28 241.131 311.489 237.467 318.351C220.016 350.992 175.897 372.752 139.842 374.459C131.359 374.861 112.838 375.882 108.003 367.73C100.558 355.193 108.94 323.992 117.958 313.213C121.087 309.48 121.17 311.606 124.784 313.196C139.507 319.64 159.082 320.343 174.441 315.523C177.269 314.635 179.477 312.962 182.305 312.643C185.701 313.732 178.407 320.36 177.353 321.247C175.194 323.072 172.367 324.427 170.342 326.269C162.747 333.148 176.616 331.089 180.465 329.968C186.939 328.093 194.334 322.419 198.818 317.431C200.692 315.338 205.745 307.103 207.719 306.668Z" fill="white"></path>
<path d="M298.016 306.668C298.802 306.551 299.438 306.484 300.241 306.668C302.232 307.103 307.268 315.339 309.142 317.431C314.479 323.356 323.898 330.27 332.029 331.073C334.087 331.274 340.813 331.943 339.776 328.545C339.257 326.838 332.397 322.754 330.607 321.247C329.553 320.36 322.259 313.732 325.655 312.644C328.482 312.962 330.691 314.636 333.518 315.523C348.861 320.327 368.436 319.64 383.176 313.196C386.789 311.623 386.873 309.48 390.002 313.213C399.02 323.976 407.402 355.193 399.957 367.731C395.121 375.882 376.584 374.844 368.118 374.459C333.535 372.819 295.891 354.507 275.479 326.236C274.241 324.528 269.155 316.678 268.887 315.121C268.318 311.84 273.572 312.828 275.446 312.61C280.9 311.957 286.371 310.719 291.624 309.112C293.599 308.509 296.075 306.969 298.032 306.685L298.016 306.668Z" fill="white"></path>
<path d="M232.598 237.219C241.616 235.813 248.007 240.048 253.829 246.325C254.482 246.442 257.393 243.011 258.196 242.358C274.442 229.135 292.494 242.509 289.165 261.691C286.856 274.948 270.962 293.277 260.12 300.893C254.013 305.195 253.612 305.011 247.589 300.726C236.145 292.591 218.962 272.722 218.276 258.193C217.891 249.941 223.814 238.592 232.615 237.219H232.598Z" fill="white"></path>
<path d="M269.891 465.015C264.838 470.422 251.688 470.723 245.062 468.648C237.617 466.321 235.626 463.542 235.927 455.725C236.73 434.183 242.402 411.485 244.343 389.876C246.167 369.655 244.309 349.117 249.68 329.365C250.282 327.156 251.688 321.632 252.692 319.925C253.26 318.971 254.13 318.502 255 319.406C255.636 320.076 257.778 327.541 258.196 329.047C263.667 348.866 261.793 369.538 263.617 389.876C265.558 411.485 271.229 434.183 272.033 455.725C272.15 458.839 272.15 462.605 269.891 465.015Z" fill="white"></path>
<path d="M206.933 230.407C217.774 228.951 210.463 239.781 208.623 244.953C202.131 263.198 207.92 279.568 221.472 292.34C223.48 294.231 227.662 295.989 227.043 299.102C226.223 301.479 216.202 299.604 214.043 298.968C198.885 294.432 184.279 280.037 184.129 263.432C184.011 250.393 192.628 232.332 206.933 230.407Z" fill="white"></path>
<path d="M297.196 230.39C300.492 229.653 305.143 231.444 308.021 233.051C323.246 241.571 327.796 264.704 319.314 279.417C313.224 289.962 295.372 302.399 282.774 300.073C276.784 298.968 285.066 293.695 286.488 292.356C300.04 279.585 305.812 263.214 299.337 244.969C298.116 241.521 294.351 235.277 295.389 231.813C295.59 231.143 296.543 230.557 297.196 230.423V230.39Z" fill="white"></path>
<path d="M215.449 384.871C216.553 390.16 220.251 394.847 224.065 398.529C225.537 399.952 231.962 404.522 231.812 406.279C231.494 409.912 223.045 407.133 221.07 406.346C209.961 401.927 199.471 390.076 197.497 378.142C195.991 369.002 196.56 364.232 207.1 366.123C218.912 368.233 233.066 378.477 235.308 390.88C236.53 397.592 228.432 390.445 226.223 389.122C222.994 387.197 219.263 384.854 215.432 384.871H215.449Z" fill="white"></path>
<path d="M292.494 384.871C288.646 384.854 284.932 387.197 281.703 389.122C279.729 390.294 275.144 394.345 273.103 393.658C271.229 393.022 273.94 387.214 274.509 385.942C279.093 375.631 289.817 368.099 300.843 366.123C311.869 364.148 311.952 369.003 310.447 378.142C308.338 390.98 293.297 407.769 279.846 408.171C270.326 408.455 282.071 400.304 283.895 398.529C287.709 394.847 291.407 390.16 292.511 384.871H292.494Z" fill="white"></path>
<path d="M147.818 219.332L161.231 221.879C165.505 223.046 183.883 226.974 185.461 230.755C187.039 234.535 182.223 242.013 180.743 245.744C175.204 259.731 176.42 273.504 184.31 286.307C186.858 290.433 190.228 291.452 186.612 296.169C179.297 305.668 161.543 308.38 150.382 307.23C109.895 303.088 75.8023 264.234 60.8929 228.766C53.9561 212.248 49.9123 196.716 60.5149 180.725C77.1502 155.594 115.418 140.079 143.856 133.571C167.921 128.065 201.143 126.947 218.584 147.557C233.181 164.815 222.792 192.345 233.69 210.9C237.142 216.768 242.403 220.351 246.956 225.232C248.057 229.834 244.277 227.714 241.827 227.599C239.805 227.5 237.126 227.435 235.137 227.599C232.918 227.78 230.156 228.98 228.085 228.749C225.669 228.487 218.649 224.821 215.724 223.753C208.293 221.025 201.061 219.151 193.22 217.869C177.867 215.338 162.826 214.566 147.818 219.332Z" fill="#585858"></path>
<path d="M360.708 219.726C360.806 219.151 360.017 219.201 359.606 219.053C339.864 212.659 312.33 216.653 293.081 223.655C290.09 224.739 282.873 228.503 280.424 228.766C278.336 228.98 275.575 227.796 273.372 227.616C271.383 227.451 268.704 227.517 266.682 227.616C264.249 227.731 260.452 229.851 261.553 225.249C266.106 220.384 271.367 216.784 274.819 210.917C285.717 192.361 275.328 164.831 289.925 147.574C307.366 126.964 340.571 128.065 364.653 133.587C393.091 140.096 431.359 155.611 447.994 180.741C458.597 196.749 454.569 212.265 447.616 228.782C432.707 264.251 398.614 303.105 358.127 307.246C346.949 308.397 329.212 305.668 321.897 296.185C318.264 291.485 321.651 290.449 324.199 286.324C332.089 273.52 333.305 259.747 327.766 245.761C326.286 242.03 321.47 234.568 323.048 230.771C324.001 228.47 332.566 225.824 335.064 225.052C343.365 222.504 352.045 220.729 360.691 219.726H360.708Z" fill="#585858"></path>
<path d="M254.123 47.1851C259.383 47.0043 269.986 51.031 274.769 53.5457C292.194 62.7332 316.9 90.1808 321.782 109.427C322.67 112.911 322.834 114.374 319.58 116.511C314.977 119.518 305.722 121.54 300.117 124.252C266.304 140.556 272.895 171.324 265.958 201.664C264.676 207.301 262.474 217.146 255.257 217.771C246.529 218.527 244.129 208.55 242.616 201.993C235.597 171.587 242.32 140.622 208.392 124.252C202.787 121.556 193.516 119.518 188.929 116.511C185.675 114.374 185.839 112.911 186.727 109.427C192.809 85.4637 228.184 48.1055 254.123 47.1851Z" fill="#585858"></path>
<path d="M208.819 305.751C211.466 305.159 214.77 307.378 217.302 308.151C222.463 309.712 227.822 310.928 233.197 311.586C238.572 312.243 241.646 310.484 238.046 317.223C220.902 349.273 177.554 370.639 142.13 372.315C133.796 372.71 115.599 373.712 110.848 365.708C103.533 353.398 111.769 322.762 120.629 312.177C123.703 308.512 123.785 310.599 127.336 312.161C141.801 318.489 161.034 319.179 176.124 314.445C178.902 313.574 181.072 311.931 183.85 311.618C187.187 312.687 180.02 319.195 178.984 320.066C176.864 321.858 174.086 323.189 172.097 324.997C164.634 331.752 178.261 329.731 182.042 328.629C188.403 326.789 195.669 321.217 200.074 316.319C201.915 314.265 206.88 306.178 208.819 305.751Z" fill="#585858"></path>
<path d="M297.536 305.751C298.309 305.636 298.933 305.57 299.722 305.751C301.678 306.178 306.626 314.265 308.467 316.319C313.711 322.137 322.966 328.925 330.955 329.714C332.977 329.911 339.585 330.569 338.566 327.232C338.056 325.556 331.316 321.546 329.557 320.066C328.522 319.195 321.355 312.687 324.692 311.618C327.47 311.931 329.64 313.574 332.418 314.445C347.491 319.162 366.724 318.489 381.206 312.161C384.757 310.616 384.839 308.512 387.913 312.177C396.773 322.745 405.008 353.398 397.693 365.708C392.943 373.712 374.729 372.693 366.412 372.315C332.434 370.705 295.448 352.724 275.394 324.964C274.177 323.288 269.18 315.579 268.917 314.051C268.358 310.83 273.52 311.799 275.361 311.586C280.72 310.945 286.095 309.728 291.257 308.151C293.196 307.559 295.629 306.047 297.552 305.767L297.536 305.751Z" fill="#585858"></path>
<path d="M233.263 237.559C242.123 236.179 248.402 240.337 254.123 246.5C254.764 246.615 257.624 243.246 258.413 242.605C274.375 229.621 292.111 242.753 288.84 261.588C286.572 274.605 270.956 292.602 260.304 300.081C254.304 304.305 253.909 304.124 247.992 299.916C236.748 291.928 219.866 272.419 219.192 258.153C218.814 250.05 224.633 238.907 233.279 237.559H233.263Z" fill="#585858"></path>
<path d="M269.904 461.232C264.939 466.541 252.019 466.836 245.509 464.798C238.194 462.514 236.238 459.786 236.534 452.11C237.323 430.957 242.896 408.671 244.803 387.452C246.594 367.598 244.77 347.431 250.046 328.037C250.638 325.868 252.019 320.444 253.005 318.768C253.564 317.831 254.419 317.371 255.274 318.258C255.898 318.915 258.002 326.246 258.413 327.725C263.789 347.185 261.948 367.483 263.739 387.452C265.646 408.671 271.219 430.957 272.008 452.11C272.123 455.167 272.123 458.865 269.904 461.232Z" fill="#585858"></path>
<path d="M208.047 230.87C218.699 229.44 211.515 240.074 209.707 245.152C203.329 263.067 209.017 279.141 222.332 291.682C224.304 293.539 228.414 295.265 227.806 298.322C227 300.656 217.154 298.815 215.033 298.19C200.14 293.736 185.79 279.602 185.642 263.297C185.527 250.494 193.992 232.76 208.047 230.87Z" fill="#585858"></path>
<path d="M296.731 230.853C299.969 230.13 304.539 231.889 307.366 233.467C322.325 241.832 326.796 264.547 318.462 278.994C312.478 289.348 294.939 301.56 282.561 299.275C276.676 298.19 284.813 293.013 286.21 291.698C299.525 279.158 305.196 263.084 298.835 245.169C297.635 241.783 293.936 235.653 294.955 232.25C295.152 231.593 296.089 231.018 296.731 230.886V230.853Z" fill="#585858"></path>
<path d="M216.414 382.538C217.499 387.732 221.132 392.334 224.88 395.95C226.326 397.347 232.638 401.834 232.49 403.559C232.178 407.126 223.877 404.398 221.937 403.625C211.022 399.286 200.716 387.65 198.776 375.931C197.296 366.957 197.855 362.273 208.211 364.13C219.817 366.201 233.723 376.26 235.926 388.439C237.126 395.029 229.17 388.011 227 386.713C223.828 384.823 220.162 382.522 216.397 382.538H216.414Z" fill="#585858"></path>
<path d="M292.111 382.538C288.331 382.522 284.681 384.823 281.509 386.713C279.569 387.863 275.065 391.841 273.06 391.167C271.219 390.542 273.882 384.839 274.44 383.59C278.944 373.466 289.481 366.07 300.314 364.13C311.147 362.191 311.229 366.957 309.75 375.931C307.678 388.537 292.9 405.022 279.684 405.417C270.331 405.696 281.87 397.692 283.662 395.95C287.41 392.334 291.043 387.732 292.128 382.538H292.111Z" fill="#585858"></path>
</svg></svg><style>@media (prefers-color-scheme: light) { :root { filter: none; } }
@media (prefers-color-scheme: dark) { :root { filter: none; } }
</style></svg>